<svg xmlns="http://www.w3.org/2000/svg" width="69.275" height="64.369" viewBox="0 0 69.275 64.369">
  <path id="Path_61" data-name="Path 61" d="M67.764,53.347a2.453,2.453,0,0,0-1.741-.721h-.571L53.925,42.638a1.361,1.361,0,0,0-1.673-.109L26.732,16.995a1.358,1.358,0,0,0,.15-1.265L25.82,13.091a.856.856,0,0,1,.49-1.109.87.87,0,0,1,.177-.048L38.73,10.1a1.36,1.36,0,0,0,.762-2.313l-.762-.667a11.346,11.346,0,0,0-9.754-3.183L22.406,4.983a11.242,11.242,0,0,0-6.285,3.17l-4.775,4.788a3.129,3.129,0,0,0-.762,3.224.843.843,0,0,1-.2.871L7.659,19.756l-.218-.122a1.36,1.36,0,0,0-1.918,0L2.395,22.763a1.36,1.36,0,0,0,0,1.918l6.951,6.951a1.36,1.36,0,0,0,1.918,0L14.393,28.5a1.36,1.36,0,0,0,0-1.918l-.15-.177,2.721-2.721a.843.843,0,0,1,.871-.2l1.047.354a1.363,1.363,0,0,0,1.184-.177L45.627,49.14a1.361,1.361,0,0,0,.109,1.673l9.989,11.526v.571a2.453,2.453,0,0,0,.721,1.741l2.8,2.8a2.475,2.475,0,0,0,3.482,0l7.822-7.822a2.462,2.462,0,0,0,0-3.483h0Zm-57.451-24.6-5.02-5.033L6.5,22.5l.163.163h0L9.02,25.021l2.5,2.517Zm8.679-7.808-.245-.082a3.551,3.551,0,0,0-3.659.857l-2.721,2.721-1.36-1.36-1.36-1.36,2.721-2.721a3.551,3.551,0,0,0,.857-3.659.421.421,0,0,1,.109-.435l4.72-4.816A8.548,8.548,0,0,1,22.8,7.663l6.625-1.034a8.635,8.635,0,0,1,5.9,1.224l-9.264,1.36a3.577,3.577,0,0,0-2.932,4.123,3.488,3.488,0,0,0,.211.747l.721,1.809Zm3.074.775,2.721-2.721L50.279,44.406l-2.721,2.721ZM61,65.359,58.445,62.8V62.23a2.465,2.465,0,0,0-.667-1.687L48.62,49.915l4.394-4.394L63.655,54.68a2.465,2.465,0,0,0,1.687.667h.5L68.4,57.9,63.72,62.622Z" transform="translate(-1.999 -3.802)"/>
</svg>
