<svg xmlns="http://www.w3.org/2000/svg" width="41.406" height="59.656" viewBox="0 0 41.406 59.656">
  <path id="Path_55" data-name="Path 55" d="M64.5,21.313c-2.353-.568-5.356.649-6.492,4.22-.406,1.38-.893,2.84-1.3,4.3-.081-.081-.081-.162-.162-.162a4.467,4.467,0,0,0-3.489-1.623,4.858,4.858,0,0,0-2.759.893,2.852,2.852,0,0,0-.568-.73,5.163,5.163,0,0,0-3.652-1.542A5.679,5.679,0,0,0,42.749,27.8c-.325-2.84-.649-5.924-1.055-9.008-.406-3.9-3.165-5.762-5.762-5.6-2.353.162-4.869,2.029-4.869,5.762,0,3.652.73,12.254,1.38,18.665a.3.3,0,0,0-.243.081l-4.463,1.542A1.659,1.659,0,0,0,26.6,40.789v9.738a1.543,1.543,0,0,0,.406,1.055l6.33,6.979V71.22a1.628,1.628,0,0,0,1.623,1.623H60.034a1.628,1.628,0,0,0,1.623-1.623V58.48l2.84-6.167a1.91,1.91,0,0,0,.162-.649v-8.44c.325-1.3,2.191-10.225,3.246-15.824C68.474,23.991,66.526,21.8,64.5,21.313Zm.162,5.518c-1.136,6.005-3.246,15.743-3.246,15.906v8.521l-2.84,6.167a1.91,1.91,0,0,0-.162.649V69.516H36.582V65.3H53.461a1.623,1.623,0,1,0,0-3.246H36.582v-4.22a1.543,1.543,0,0,0-.406-1.055L29.846,49.8V41.925l2.921-.974c.243,2.435.406,4.139.406,4.3A1.66,1.66,0,0,0,34.8,46.713h.162a1.637,1.637,0,0,0,1.461-1.785c0-.162-2.11-20.125-2.11-25.968,0-1.785.974-2.516,1.866-2.6,1.055-.081,2.191.73,2.353,2.759.974,8.845,2.11,18.34,2.11,18.421v.243c0,.081,0,.081.081.162,0,.081,0,.081.081.162,0,.081.081.081.081.162l.081.081c0,.081.081.081.081.162l.081.081c.081,0,.081.081.162.081a.283.283,0,0,0,.162.081c.081,0,.081.081.162.081s.081,0,.162.081c.081,0,.081,0,.162.081s.081,0,.162,0h.649c.081,0,.081,0,.162-.081.081,0,.081-.081.162-.081s.081-.081.162-.081.081-.081.162-.081l.081-.081a.079.079,0,0,0,.081-.081l.081-.081c0-.081.081-.081.081-.162s.081-.081.081-.162.081-.081.081-.162,0-.081.081-.162V32.512c0-2.678,2.435-3.084,3.489-2.029a3.037,3.037,0,0,1,.649,2.029v5.031a1.623,1.623,0,0,0,3.246,0V33.891c0-1.785.893-2.6,1.785-2.6a1.238,1.238,0,0,1,.974.487,3.264,3.264,0,0,1,.568,2.11v4.626a1.623,1.623,0,1,0,3.246,0v-.081c.243-1.136,1.623-7.385,3.084-11.848.568-1.7,1.7-2.272,2.6-2.11S64.9,25.533,64.66,26.831Z" transform="translate(-26.6 -13.188)"/>
</svg>
