<svg xmlns="http://www.w3.org/2000/svg" width="62.373" height="58.792" viewBox="0 0 62.373 58.792">
  <g id="Group_186" data-name="Group 186" transform="translate(-27.2 -27.324)">
    <path id="Path_60" data-name="Path 60" d="M89.446,86.116,58.64,85.99a31.3,31.3,0,0,1-23.2-9.635A30.928,30.928,0,0,1,27.2,55.564c0-10.9,4.817-19.523,13.311-24.467,8.747-4.944,20.284-5.071,28.651-.127,7.1,4.184,11.029,11.283,11.029,19.9a23.7,23.7,0,0,1-5.958,15.973c-1.014,1.014-2.028,1.9-3.043,2.789l18.382.127ZM55.217,31.223a26.254,26.254,0,0,0-12.677,3.3C35.314,38.7,31.257,46.183,31.13,55.564a26.409,26.409,0,0,0,7.1,18c3.55,3.8,10.015,8.367,20.284,8.367l26.876.127V73.439L58.64,73.312h0c-7.226,0-13.184-3.3-16.354-8.874A16.8,16.8,0,0,1,42.033,47.7c2.662-4.437,7.226-6.973,13.058-6.973h.127a11.6,11.6,0,0,1,8.24,3.423,11.824,11.824,0,0,1,3.423,8.24,9.372,9.372,0,0,1-6.592,8.621c-1.648.507-5.958.887-9.381-4.691A1.935,1.935,0,1,1,54.2,54.3c1.014,1.648,2.662,3.55,4.944,2.916a5.335,5.335,0,0,0,3.676-4.944,7.792,7.792,0,0,0-7.733-7.733h-.127c-5.578,0-8.367,2.662-9.635,4.944a13.167,13.167,0,0,0,.254,12.8c1.521,2.535,5.071,6.846,12.931,6.973h.127a16.756,16.756,0,0,0,12.424-5.324A19.385,19.385,0,0,0,76.008,50.62c0-7.1-3.169-13.058-9.128-16.481A23.071,23.071,0,0,0,55.217,31.223Z" transform="translate(0 0)"/>
  </g>
</svg>
