<svg xmlns="http://www.w3.org/2000/svg" width="51.732" height="55.899" viewBox="0 0 51.732 55.899">
  <path id="Path_62" data-name="Path 62" d="M79.213,28.69a1.841,1.841,0,0,0-3.4-.512c-.037.064-3.674,6.405-9.745,6.405-6.02,0-9.646-6.336-9.68-6.4a1.841,1.841,0,0,0-1.611-.949c-1,0-1.481.666-1.987,1.369-1.176,1.634-4.3,5.975-9.3,5.975-6.018,0-9.645-6.336-9.678-6.4a1.842,1.842,0,0,0-3.411.5c-6.138,28.256,8.16,46.554,23.587,54.253a1.841,1.841,0,0,0,1.646,0C71.051,75.244,85.35,56.948,79.213,28.69ZM54.8,79.226C41.672,72.3,29.746,56.91,33.255,33.488a14.246,14.246,0,0,0,10.228,4.781c5.562,0,9.284-3.682,11.215-6.077,1.978,2.46,5.831,6.077,11.366,6.077a14.373,14.373,0,0,0,10.285-4.8C79.866,56.9,67.937,72.3,54.8,79.226ZM56.64,41.176a1.839,1.839,0,0,0-3.677,0A12.92,12.92,0,0,0,41.891,53.941a1.842,1.842,0,0,0,1.842,1.842h9.227v9.257a1.857,1.857,0,0,0,.038.372,4.527,4.527,0,0,0,9.041-.371,1.842,1.842,0,1,0-3.684,0,.855.855,0,1,1-1.711,0V55.783h9.226a1.842,1.842,0,0,0,1.842-1.842A12.919,12.919,0,0,0,56.64,41.176ZM45.761,52.1a9.227,9.227,0,0,1,18.082,0Z" transform="translate(-28.936 -27.239)"/>
</svg>
