<svg xmlns="http://www.w3.org/2000/svg" width="57.824" height="59.114" viewBox="0 0 57.824 59.114">
  <g id="Group_184" data-name="Group 184" transform="translate(-6.786 -5.82)">
    <path id="Path_56" data-name="Path 56" d="M35.981,64.9,63.2,58.915a1.339,1.339,0,0,0,1.41-1.263c0-.03,0-.06,0-.091v-44.6A1.574,1.574,0,0,0,63.4,11.575L35.968,5.848A1.367,1.367,0,0,0,35.7,5.82a1.322,1.322,0,0,0-.281.028L7.992,11.575a1.337,1.337,0,0,0-.275.09,1.339,1.339,0,0,0-.931,1.293v44.6a1.338,1.338,0,0,0,1.321,1.355c.028,0,.056,0,.084,0L35.407,64.9A1.353,1.353,0,0,0,35.981,64.9ZM48.07,59.5,37.032,61.932V53.027L48.07,50.692Zm0-11.546L37.032,50.292V41.607q5.519-1.167,11.039-2.331Zm0-11.417L37.032,38.872V30.193L48.07,27.859Zm0-11.417L37.032,27.458V19.7l11.039-2.3Zm13.862,31.33L50.746,58.915V50.126l11.186-2.366Zm0-11.428L50.746,47.391V38.711l11.186-2.363Zm0-11.413q-5.592,1.182-11.186,2.363V27.293l11.186-2.366Zm0-11.42L50.746,24.558V16.836L61.932,14.5ZM35.694,8.525l20.883,4.36-20.883,4.36-20.883-4.36ZM9.461,14.5l11.179,2.334v7.722L9.461,22.194Zm0,10.427,11.179,2.364v8.682L9.461,33.614Zm0,11.419L20.641,38.71v8.682L9.461,45.027ZM24.177,59.693l-4.424-.973.013-4.877,4.424.85Zm10.178,2.239-7.5-1.651.017-6.69a1.337,1.337,0,0,0-1.085-1.317l-7.1-1.365a1.339,1.339,0,0,0-1.567,1.062,1.29,1.29,0,0,0-.024.248l-.016,5.911L9.461,56.455V47.763l24.894,5.265Zm0-11.64L23.317,47.957V39.275l11.039,2.332Zm0-11.42L23.317,36.539V27.859l11.039,2.334Zm0-11.413L23.317,25.124V17.395l11.039,2.3Z" fill="#fff"/>
    <path id="Path_57" data-name="Path 57" d="M50.007,5.82Z" transform="translate(-14.305 0)" fill="#fff"/>
  </g>
</svg>
