<svg xmlns="http://www.w3.org/2000/svg" width="46.683" height="13.255" viewBox="0 0 46.683 13.255">
  <g id="Group_207" data-name="Group 207" transform="translate(-940.018 -4843.818)">
    <g id="Group_183" data-name="Group 183" transform="translate(993.634 4807.927) rotate(90)">
      <path id="Path_6" data-name="Path 6" d="M50.274,85.637l-3.339,3.339L43.6,85.637A1.879,1.879,0,1,0,40.937,88.3l4.7,4.7A1.9,1.9,0,0,0,47,93.543,2.164,2.164,0,0,0,48.366,93l4.7-4.7a1.852,1.852,0,0,0,0-2.658A2.016,2.016,0,0,0,50.274,85.637Z" transform="translate(-4.483 -39.926)" fill="#2a3136"/>
    </g>
    <path id="Path_42" data-name="Path 42" d="M14706.223,3042.445h-39.777" transform="translate(15651.146 7892.892) rotate(180)" fill="none" stroke="#2a3136" stroke-linecap="round" stroke-width="4"/>
  </g>
</svg>
