<svg xmlns="http://www.w3.org/2000/svg" width="32.868" height="32.876" viewBox="0 0 32.868 32.876">
  <g id="Group_224" data-name="Group 224" transform="translate(-1739.103 -47)">
    <g id="facebook_2_" data-name="facebook (2)" transform="translate(1748.428 53.428)">
      <g id="Group_189" data-name="Group 189" transform="translate(0)">
        <path id="Path_64" data-name="Path 64" d="M137.616,10.577V6.731a1.924,1.924,0,0,1,1.923-1.923h1.923V0h-3.846a5.769,5.769,0,0,0-5.769,5.77v4.808H128v4.808h3.846v9.678h5.769V15.385h3.846l1.923-4.808Z" transform="translate(-128)" fill="#2e93d2"/>
      </g>
    </g>
    <path id="Path_68" data-name="Path 68" d="M33.233,9.666a12.013,12.013,0,0,0-.764-3.988,8.421,8.421,0,0,0-4.81-4.81A12.043,12.043,0,0,0,23.671.1C21.911.019,21.353,0,16.889,0s-5.022.019-6.775.1A12.016,12.016,0,0,0,6.126.861a8.021,8.021,0,0,0-2.916,1.9A8.094,8.094,0,0,0,1.316,5.671,12.045,12.045,0,0,0,.551,9.659c-.084,1.76-.1,2.319-.1,6.782s.019,5.022.1,6.776a12.013,12.013,0,0,0,.764,3.988,8.42,8.42,0,0,0,4.81,4.81,12.045,12.045,0,0,0,3.988.764c1.753.077,2.312.1,6.775.1s5.022-.019,6.775-.1a12.009,12.009,0,0,0,3.988-.764,8.409,8.409,0,0,0,4.81-4.81,12.054,12.054,0,0,0,.764-3.988c.077-1.753.1-2.312.1-6.776s-.007-5.022-.084-6.776Zm-2.96,13.423a9.011,9.011,0,0,1-.565,3.051,5.453,5.453,0,0,1-3.121,3.121,9.042,9.042,0,0,1-3.05.565c-1.734.077-2.254.1-6.64.1s-4.913-.019-6.641-.1A9.006,9.006,0,0,1,7.2,29.26a5.059,5.059,0,0,1-1.888-1.227A5.111,5.111,0,0,1,4.09,26.145a9.045,9.045,0,0,1-.565-3.051c-.077-1.734-.1-2.254-.1-6.641s.019-4.913.1-6.641A9.007,9.007,0,0,1,4.09,6.763,5,5,0,0,1,5.323,4.875,5.1,5.1,0,0,1,7.211,3.648a9.049,9.049,0,0,1,3.05-.565c1.734-.077,2.254-.1,6.64-.1s4.913.019,6.641.1a9.01,9.01,0,0,1,3.05.565,5.055,5.055,0,0,1,1.888,1.227,5.11,5.11,0,0,1,1.227,1.888,9.048,9.048,0,0,1,.565,3.051c.077,1.734.1,2.254.1,6.641s-.019,4.9-.1,6.634Zm0,0" transform="translate(1738.654 47)" fill="#2e93d2"/>
  </g>
</svg>
