<svg xmlns="http://www.w3.org/2000/svg" width="32.868" height="32.876" viewBox="0 0 32.868 32.876">
  <g id="Group_225" data-name="Group 225" transform="translate(-1783.859 -47)">
    <g id="instagram-sketched" transform="translate(1783.859 47)">
      <path id="Path_65" data-name="Path 65" d="M33.233,9.666a12.013,12.013,0,0,0-.764-3.988,8.421,8.421,0,0,0-4.81-4.81A12.043,12.043,0,0,0,23.671.1C21.911.019,21.353,0,16.889,0s-5.022.019-6.775.1A12.016,12.016,0,0,0,6.126.861a8.021,8.021,0,0,0-2.916,1.9A8.094,8.094,0,0,0,1.316,5.671,12.045,12.045,0,0,0,.551,9.659c-.084,1.76-.1,2.319-.1,6.782s.019,5.022.1,6.776a12.013,12.013,0,0,0,.764,3.988,8.42,8.42,0,0,0,4.81,4.81,12.045,12.045,0,0,0,3.988.764c1.753.077,2.312.1,6.775.1s5.022-.019,6.775-.1a12.009,12.009,0,0,0,3.988-.764,8.409,8.409,0,0,0,4.81-4.81,12.054,12.054,0,0,0,.764-3.988c.077-1.753.1-2.312.1-6.776s-.007-5.022-.084-6.776Zm-2.96,13.423a9.011,9.011,0,0,1-.565,3.051,5.453,5.453,0,0,1-3.121,3.121,9.042,9.042,0,0,1-3.05.565c-1.734.077-2.254.1-6.64.1s-4.913-.019-6.641-.1A9.006,9.006,0,0,1,7.2,29.26a5.059,5.059,0,0,1-1.888-1.227A5.111,5.111,0,0,1,4.09,26.145a9.045,9.045,0,0,1-.565-3.051c-.077-1.734-.1-2.254-.1-6.641s.019-4.913.1-6.641A9.007,9.007,0,0,1,4.09,6.763,5,5,0,0,1,5.323,4.875,5.1,5.1,0,0,1,7.211,3.648a9.049,9.049,0,0,1,3.05-.565c1.734-.077,2.254-.1,6.64-.1s4.913.019,6.641.1a9.01,9.01,0,0,1,3.05.565,5.055,5.055,0,0,1,1.888,1.227,5.11,5.11,0,0,1,1.227,1.888,9.048,9.048,0,0,1,.565,3.051c.077,1.734.1,2.254.1,6.641s-.019,4.9-.1,6.634Zm0,0" transform="translate(-0.449 0)" fill="#2e93d2"/>
      <path id="Path_66" data-name="Path 66" d="M133.394,124.5a8.445,8.445,0,1,0,8.445,8.445A8.447,8.447,0,0,0,133.394,124.5Zm0,13.924a5.478,5.478,0,1,1,5.478-5.478A5.479,5.479,0,0,1,133.394,138.424Zm0,0" transform="translate(-116.953 -116.504)" fill="#2e93d2"/>
      <path id="Path_67" data-name="Path 67" d="M366.393,90.573a1.972,1.972,0,1,1-1.972-1.972A1.972,1.972,0,0,1,366.393,90.573Zm0,0" transform="translate(-339.202 -82.912)" fill="#2e93d2"/>
    </g>
  </g>
</svg>
