<svg xmlns="http://www.w3.org/2000/svg" width="78.067" height="31.421" viewBox="0 0 78.067 31.421">
  <path id="Path_1" data-name="Path 1" d="M573.549,255.128a1.114,1.114,0,0,0-1.115,0l-12.639,7.3a1.115,1.115,0,0,0,1.115,1.931l10.967-6.332v11.907L560.348,276.7l-11.52-6.651V256.737l12.081-6.975a1.115,1.115,0,0,0-1.115-1.931l-12.639,7.3h0l-12.639,7.3a1.115,1.115,0,1,0,1.115,1.931l10.967-6.332v12.021L535.073,276.7l-11.525-6.654V256.737l12.083-6.976a1.115,1.115,0,1,0-1.115-1.931l-12.083,6.976-12.082-6.975a1.115,1.115,0,0,0-1.115,0l-12.639,7.3a1.115,1.115,0,0,0-.557.965v21.773a1.115,1.115,0,0,0,1.115,1.115h0a1.115,1.115,0,0,0,1.115-1.115v-6.534l23.05-13.309v12.664a1.115,1.115,0,0,0,.557.965l12.64,7.3a1.114,1.114,0,0,0,1.115,0l12.082-6.976,12.082,6.975a1.115,1.115,0,0,0,1.122,0l12.639-7.416a1.115,1.115,0,0,0,.551-.961V256.094A1.115,1.115,0,0,0,573.549,255.128Z" transform="translate(-496.039 -247.681)" fill="#2e93d2"/>
</svg>
